<?xml version="1.0" encoding="UTF-8"?>
<!DOCTYPE svg PUBLIC "-//W3C//DTD SVG 1.1//EN" "http://www.w3.org/Graphics/SVG/1.1/DTD/svg11.dtd">
<!-- Creator: CorelDRAW (Versão de avaliação) -->
<svg xmlns="http://www.w3.org/2000/svg" xml:space="preserve" width="359.481mm" height="61.3832mm" version="1.1" style="shape-rendering:geometricPrecision; text-rendering:geometricPrecision; image-rendering:optimizeQuality; fill-rule:evenodd; clip-rule:evenodd"
viewBox="0 0 35948.06 6138.32"
 xmlns:xlink="http://www.w3.org/1999/xlink"
 xmlns:xodm="http://www.corel.com/coreldraw/odm/2003">
 <defs>
  <style type="text/css">
   <![CDATA[
    .fil1 {fill:#334958;fill-rule:nonzero}
    .fil0 {fill:#E041E7;fill-rule:nonzero}
   ]]>
  </style>
 </defs>
 <g id="Camada_x0020_2">
  <metadata id="CorelCorpID_0Corel-Layer"/>
  <path class="fil0" d="M3595.38 6052.94c0,0 -842.61,-353.62 -1616.4,-1221.98 -773.78,-868.37 -673.1,-1457.93 -877.07,-1636.05 -203.94,-178.11 -1007.85,150.99 -1088.67,221.51 -8.84,7.71 -13.25,25.88 -13.24,53.02 0.07,221.01 292.97,1036.87 867.35,1645.68 644.94,683.58 1877.44,1242.9 2728.03,937.82z"/>
  <path class="fil0" d="M3016.41 5015.35c0,0 -460.76,-882.12 -506.06,-2147.99 -45.29,-1265.88 448.84,-1690.23 401.64,-1981.35 -47.24,-291.07 -950,-573.82 -1066.76,-570.86 -116.77,2.96 -530.12,996.56 -464.4,2017.92 65.69,1021.4 710.35,2346.96 1635.58,2682.28z"/>
  <path class="fil0" d="M32548.77 6022.14c0,0 818.27,-406.86 1534.9,-1322.95 716.6,-916.13 578.38,-1498.04 770.57,-1688.85 192.13,-190.79 1015.44,86.18 1100.6,151.37 85.16,65.23 -143.79,1026.48 -743.66,1749.92 -599.86,723.41 -1794.05,1360.52 -2662.41,1110.51z"/>
  <path class="fil0" d="M33060.16 4949.62c0,0 403.37,-909.82 367.52,-2176.01 -35.8,-1266.15 -556.11,-1658.02 -527.61,-1951.53 28.5,-293.55 911.33,-633.48 1028.06,-638 116.7,-4.55 592.78,960.58 592.57,1984.06 -0.18,1023.48 -558.7,2387.63 -1460.54,2781.48z"/>
  <polygon class="fil1" points="7992.66,4752.55 5641.82,4752.55 5641.82,-3.17 4371.82,-3.17 4371.82,5779.35 7992.66,5779.35 "/>
  <polygon class="fil1" points="10289.47,-3.18 9019.47,-3.18 9019.47,4752.55 9019.47,5779.38 10289.47,5779.38 "/>
  <polygon class="fil1" points="15355.95,4752.55 13005.11,4752.55 13005.11,-3.17 11735.11,-3.17 11735.11,5779.35 15355.95,5779.35 "/>
  <polygon class="fil1" points="17652.76,-3.18 16382.76,-3.18 16382.76,4752.55 16382.76,5779.38 17652.76,5779.38 "/>
  <path class="fil1" d="M22611.19 -3.18l0 3755.96c0,567.05 -459.74,1026.83 -1026.8,1026.83l-189.19 0c-567.06,0 -1026.8,-459.78 -1026.8,-1026.83l0 -3755.96 -1270 0 0 3850.54c0,1067.01 864.98,1932.02 1932.02,1932.02l918.71 0c1067.04,0 1932.06,-865.01 1932.06,-1932.02l0 -3850.54 -1270 0z"/>
  <polygon class="fil1" points="31393.08,-3.18 30258.19,-3.18 28636.93,3968.93 28461.88,3968.93 26840.62,-3.18 25705.73,-3.18 25219.32,5779.38 26381.27,5779.38 26624.44,2185.53 28110.9,5779.38 28987.91,5779.38 30474.37,2185.53 30717.58,5779.38 31879.45,5779.38 "/>
  <path class="fil0" d="M31376.71 -2.5c0,0 1423.14,873.69 1549.22,2765.18 126.08,1891.49 -1062.85,3017.38 -1062.85,3017.38l-486.37 -5782.56z"/>
  <path class="fil0" d="M4371.82 -3.18c0,0 -1350.97,920.3 -1352.69,2815.98 -1.77,1895.69 1352.69,2966.58 1352.69,2966.58l0 -5782.56z"/>
 </g>
</svg>
