<svg width="66" height="67" viewBox="0 0 66 67" fill="none" xmlns="http://www.w3.org/2000/svg">
<path d="M65.9632 33.4999C65.9632 51.7151 51.1968 66.4815 32.9816 66.4815C14.7664 66.4815 0 51.7151 0 33.4999C0 15.2847 14.7664 0.518311 32.9816 0.518311C51.1968 0.518311 65.9632 15.2847 65.9632 33.4999Z" fill="#5452F6"/>
<path opacity="0.44" fill-rule="evenodd" clip-rule="evenodd" d="M21.1388 21.2778C20.8334 21.196 20.5196 21.3771 20.4378 21.6825L16.3643 36.885C16.2825 37.1903 16.4637 37.5041 16.769 37.5859L44.2026 44.9367C44.5079 45.0185 44.8218 44.8373 44.9036 44.532L48.9771 29.3295C49.0589 29.0242 48.8777 28.7104 48.5724 28.6286L21.1388 21.2778ZM31.214 38.5433C34.2162 39.3477 37.3021 37.5661 38.1066 34.5638C38.911 31.5616 37.1294 28.4756 34.1271 27.6712C31.1249 26.8667 28.0389 28.6484 27.2345 31.6507C26.43 34.6529 28.2117 37.7388 31.214 38.5433Z" fill="white"/>
<path fill-rule="evenodd" clip-rule="evenodd" d="M17.8979 25.2378C17.8979 24.9218 18.1542 24.6655 18.4703 24.6655H46.8716C47.1877 24.6655 47.444 24.9218 47.444 25.2378V40.9766C47.444 41.2927 47.1877 41.549 46.8716 41.549H18.4703C18.1542 41.549 17.8979 41.2927 17.8979 40.9766V25.2378ZM38.2987 33.1073C38.2987 36.2154 35.779 38.7351 32.6709 38.7351C29.5627 38.7351 27.043 36.2154 27.043 33.1073C27.043 29.9991 29.5627 27.4795 32.6709 27.4795C35.779 27.4795 38.2987 29.9991 38.2987 33.1073ZM32.671 35.921C34.2251 35.921 35.4849 34.6612 35.4849 33.1071C35.4849 31.553 34.2251 30.2932 32.671 30.2932C31.1169 30.2932 29.8571 31.553 29.8571 33.1071C29.8571 34.6612 31.1169 35.921 32.671 35.921Z" fill="white"/>
</svg>
