<svg width="28" height="28" viewBox="0 0 28 28" fill="none" xmlns="http://www.w3.org/2000/svg">
<path d="M7.33332 13.9998C7.33332 17.7332 10.2667 20.6665 14 20.6665C17.7333 20.6665 20.6667 17.7332 20.6667 13.9998C20.6667 10.2665 17.7333 7.33317 14 7.33317C10.2667 7.33317 7.33332 10.2665 7.33332 13.9998ZM14 9.99984C16.2667 9.99984 18 11.7332 18 13.9998C18 16.2665 16.2667 17.9998 14 17.9998C11.7333 17.9998 9.99999 16.2665 9.99999 13.9998C9.99999 11.7332 11.7333 9.99984 14 9.99984ZM15.3333 4.6665V1.99984C15.3333 1.19984 14.8 0.666504 14 0.666504C13.2 0.666504 12.6667 1.19984 12.6667 1.99984V4.6665C12.6667 5.4665 13.2 5.99984 14 5.99984C14.8 5.99984 15.3333 5.4665 15.3333 4.6665ZM23.4667 4.53317C22.9333 3.99984 22.1333 3.99984 21.6 4.53317L19.7333 6.39984C19.2 6.93317 19.2 7.73317 19.7333 8.2665C20 8.53317 20.4 8.6665 20.6667 8.6665C20.9333 8.6665 21.3333 8.53317 21.6 8.2665L23.4667 6.39984C24 5.99984 24 5.0665 23.4667 4.53317ZM26 12.6665H23.3333C22.5333 12.6665 22 13.1998 22 13.9998C22 14.7998 22.5333 15.3332 23.3333 15.3332H26C26.8 15.3332 27.3333 14.7998 27.3333 13.9998C27.3333 13.1998 26.8 12.6665 26 12.6665ZM21.6 19.5998C21.0667 19.0665 20.2667 19.0665 19.7333 19.5998C19.2 20.1332 19.2 20.9332 19.7333 21.4665L21.6 23.3332C21.8667 23.5998 22.2667 23.7332 22.5333 23.7332C22.8 23.7332 23.2 23.5998 23.4667 23.3332C24 22.7998 24 21.9998 23.4667 21.4665L21.6 19.5998ZM12.6667 23.3332V25.9998C12.6667 26.7998 13.2 27.3332 14 27.3332C14.8 27.3332 15.3333 26.7998 15.3333 25.9998V23.3332C15.3333 22.5332 14.8 21.9998 14 21.9998C13.2 21.9998 12.6667 22.5332 12.6667 23.3332ZM4.53332 23.4665C4.79999 23.7332 5.19999 23.8665 5.46666 23.8665C5.73332 23.8665 6.13332 23.7332 6.39999 23.4665L8.26666 21.5998C8.79999 21.0665 8.79999 20.2665 8.26666 19.7332C7.73332 19.1998 6.93332 19.1998 6.39999 19.7332L4.53332 21.5998C3.99999 21.9998 3.99999 22.9332 4.53332 23.4665ZM0.666656 13.9998C0.666656 14.7998 1.19999 15.3332 1.99999 15.3332H4.66666C5.46666 15.3332 5.99999 14.7998 5.99999 13.9998C5.99999 13.1998 5.46666 12.6665 4.66666 12.6665H1.99999C1.19999 12.6665 0.666656 13.1998 0.666656 13.9998ZM6.39999 4.53317C5.86666 3.99984 5.06666 3.99984 4.53332 4.53317C3.99999 5.0665 3.99999 5.8665 4.53332 6.39984L6.39999 8.2665C6.66666 8.6665 7.06666 8.79984 7.46666 8.79984C7.86666 8.79984 8.13332 8.6665 8.39999 8.39984C8.93332 7.8665 8.93332 7.0665 8.39999 6.53317L6.39999 4.53317Z" fill="white"/>
</svg>
