<svg width="40" height="35" viewBox="0 0 40 35" fill="none" xmlns="http://www.w3.org/2000/svg">
<path fill-rule="evenodd" clip-rule="evenodd" d="M22.7693 0.314453C17.3133 0.314453 12.6716 3.7873 10.9289 8.6417C10.7233 8.6288 10.5162 8.6223 10.3077 8.6223C4.89108 8.6223 0.5 13.0134 0.5 18.43C0.5 18.6306 0.50604 18.8299 0.51797 19.0278C0.50614 19.1037 0.5 19.1815 0.5 19.2607C0.5 24.2185 4.51914 28.2376 9.477 28.2376H10.2625L10.3077 28.2378V25.2378L10.2706 25.2377L10.2626 25.2376H9.477C6.2809 25.2376 3.67072 22.729 3.50804 19.5734C3.54001 19.4235 3.54912 19.2681 3.53367 19.1125C3.51143 18.8885 3.5 18.6608 3.5 18.43C3.5 14.6702 6.5479 11.6223 10.3077 11.6223C10.7844 11.6223 11.2482 11.671 11.6947 11.7634C12.4878 11.9273 13.2677 11.4322 13.4569 10.6448C14.4674 6.4388 18.2553 3.31445 22.7693 3.31445C27.775 3.31445 31.8852 7.156 32.31 12.0508C32.3535 12.5529 32.6463 12.9995 33.0893 13.2397C35.1489 14.3565 36.4998 16.4533 36.4998 18.8209C36.4998 22.3093 33.5401 25.2377 29.7625 25.2377L29.717 25.2376L29.6608 25.237C29.6467 25.2368 29.6326 25.2368 29.6185 25.237C29.5896 25.2374 29.5607 25.2376 29.5316 25.2376V28.2376L29.6041 28.2374L29.6397 28.237C29.6806 28.2375 29.7216 28.2377 29.7625 28.2377C35.0836 28.2377 39.4998 24.0772 39.4998 18.8209C39.4998 15.5505 37.7797 12.6936 35.2067 11.0124C34.2989 4.957 29.077 0.314453 22.7693 0.314453ZM26.5 23.9964L22.0607 19.5571V34.9358H19.0607V19.5571L14.6213 23.9964L12.5 21.8751L20.5607 13.8145L28.6213 21.8751L26.5 23.9964Z" fill="#FFD363"/>
</svg>
