<svg width="24" height="25" viewBox="0 0 24 25" fill="none" xmlns="http://www.w3.org/2000/svg">
<path d="M20.5867 6.54311C17.7929 4.45271 15.1164 4.51127 15.1164 4.51127L14.8428 4.82375C18.1642 5.82023 19.7076 7.28543 19.7076 7.28543C14.9558 4.66919 8.90304 4.68791 3.96048 7.28543C3.96048 7.28543 5.56248 5.74199 9.0792 4.74551L8.88384 4.51103C8.88384 4.51103 6.2268 4.45247 3.41352 6.54287C3.41352 6.54287 0.600241 11.603 0.600241 17.8353C0.600241 17.8353 2.24136 20.6486 6.5592 20.7854C6.5592 20.7854 7.28208 19.9257 7.86816 19.1834C5.3868 18.4411 4.44912 16.8977 4.44912 16.8977C6.00792 17.873 7.58424 18.4836 9.5484 18.8709C12.7442 19.5288 16.7194 18.8525 19.6882 16.8977C19.6882 16.8977 18.7114 18.4802 16.152 19.2031C16.7381 19.926 17.4415 20.766 17.4415 20.766C21.7589 20.6294 23.4 17.8161 23.4 17.8356C23.4 11.6033 20.5867 6.54311 20.5867 6.54311ZM8.35632 16.0188C7.26216 16.0188 6.3636 15.0614 6.3636 13.8696C6.44352 11.0155 10.2893 11.0244 10.3493 13.8696C10.349 15.0614 9.46992 16.0188 8.35632 16.0188ZM15.4874 16.0188C14.3933 16.0188 13.4947 15.0614 13.4947 13.8696C13.5826 11.021 17.3803 11.0198 17.4804 13.8696C17.4802 15.0614 16.601 16.0188 15.4874 16.0188Z" fill="white"/>
</svg>
