<svg width="24" height="25" viewBox="0 0 24 25" fill="none" xmlns="http://www.w3.org/2000/svg">
<path d="M12 2.89514C9.62548 2.89524 7.32846 3.74026 5.51996 5.27899C3.71147 6.81772 2.5095 8.94976 2.12913 11.2936C1.74877 13.6375 2.21482 16.0402 3.4439 18.0719C4.67298 20.1036 6.58489 21.6316 8.83752 22.3826C9.33752 22.4702 9.52502 22.1702 9.52502 21.9076C9.52502 21.6701 9.51251 20.8826 9.51251 20.0451C7 20.5076 6.35 19.4327 6.15 18.8702C5.92808 18.3231 5.57628 17.8383 5.125 17.4576C4.775 17.2701 4.275 16.8076 5.11249 16.7952C5.43228 16.8299 5.73899 16.9411 6.00663 17.1196C6.27427 17.298 6.49496 17.5383 6.65 17.8201C6.78677 18.0658 6.97068 18.2821 7.19119 18.4566C7.4117 18.6311 7.66447 18.7604 7.93503 18.837C8.20559 18.9137 8.48861 18.9362 8.76788 18.9032C9.04715 18.8703 9.31717 18.7826 9.56248 18.6451C9.60577 18.1368 9.83234 17.6614 10.2 17.3077C7.975 17.0577 5.65 16.1951 5.65 12.3702C5.63595 11.3763 6.00269 10.4147 6.675 9.68267C6.36928 8.81889 6.40505 7.87096 6.775 7.03267C6.775 7.03267 7.61247 6.77016 9.525 8.05767C11.1613 7.60765 12.8887 7.60765 14.525 8.05767C16.4375 6.75767 17.275 7.03267 17.275 7.03267C17.645 7.87094 17.6808 8.8189 17.375 9.68267C18.0493 10.4135 18.4164 11.3759 18.4 12.3702C18.4 16.2076 16.0625 17.0577 13.8375 17.3077C14.0761 17.5496 14.26 17.84 14.3764 18.1592C14.4929 18.4784 14.5393 18.8189 14.5125 19.1577C14.5125 20.4952 14.5 21.5702 14.5 21.9077C14.5 22.1702 14.6875 22.4827 15.1875 22.3827C17.4362 21.6255 19.3426 20.0939 20.5664 18.0612C21.7903 16.0285 22.2519 13.627 21.8689 11.2854C21.4859 8.94379 20.2832 6.81451 18.4755 5.27765C16.6678 3.74079 14.3727 2.89638 12 2.89514Z" fill="white"/>
</svg>
