<svg width="24" height="25" viewBox="0 0 24 25" fill="none" xmlns="http://www.w3.org/2000/svg">
<path d="M22.5 6.42089C21.7271 6.74883 20.8978 6.97123 20.0264 7.07052C20.9161 6.56037 21.5972 5.75119 21.92 4.78996C21.0854 5.26239 20.1642 5.60544 19.1826 5.79141C18.3966 4.9885 17.2785 4.4884 16.0384 4.4884C13.6593 4.4884 11.7303 6.33547 11.7303 8.61226C11.7303 8.93516 11.7683 9.25055 11.8418 9.55213C8.26201 9.37997 5.08768 7.73773 2.96314 5.24228C2.59176 5.85045 2.38049 6.55909 2.38049 7.31553C2.38049 8.7467 3.14161 10.0095 4.2964 10.7483C3.5904 10.7257 2.92639 10.5397 2.34508 10.2306V10.2821C2.34508 12.28 3.83056 13.9473 5.80024 14.3268C5.43936 14.4198 5.05882 14.4713 4.66514 14.4713C4.38696 14.4713 4.11794 14.4449 3.85417 14.3947C4.40267 16.0344 5.99315 17.2268 7.87756 17.2595C6.40388 18.3653 4.54573 19.0224 2.52749 19.0224C2.17976 19.0224 1.83724 19.0023 1.5 18.9659C3.40671 20.1382 5.67036 20.8217 8.10327 20.8217C16.028 20.8217 20.3597 14.5367 20.3597 9.08597L20.3453 8.55197C21.1917 7.97393 21.9239 7.24768 22.5 6.42089Z" fill="white"/>
</svg>
