<svg width="33" height="26" viewBox="0 0 33 26" fill="none" xmlns="http://www.w3.org/2000/svg">
<path d="M10.5669 26C22.6394 26 29.2444 15.9956 29.2444 7.32248C29.2444 7.04123 29.2381 6.75373 29.2256 6.47248C30.5105 5.54328 31.6193 4.39234 32.5 3.07373C31.3034 3.60613 30.0329 3.95384 28.7319 4.10498C30.1017 3.28388 31.1274 1.99396 31.6187 0.474356C30.3301 1.23808 28.9208 1.77682 27.4513 2.06748C26.4611 1.01541 25.152 0.318822 23.7262 0.0854013C22.3005 -0.148019 20.8376 0.0947339 19.5637 0.776129C18.2897 1.45752 17.2757 2.53961 16.6785 3.85508C16.0812 5.17056 15.9339 6.64615 16.2594 8.05373C13.65 7.92279 11.0972 7.24494 8.76664 6.06413C6.43604 4.88332 4.37959 3.22592 2.73062 1.19936C1.89253 2.64432 1.63608 4.35419 2.01337 5.98145C2.39067 7.60872 3.37342 9.03126 4.76188 9.95998C3.7195 9.92689 2.69997 9.64624 1.7875 9.14123V9.22248C1.78657 10.7389 2.3108 12.2088 3.27108 13.3824C4.23136 14.5559 5.56843 15.3607 7.055 15.66C6.08941 15.9242 5.07598 15.9627 4.09313 15.7725C4.51261 17.0766 5.32876 18.2172 6.42769 19.0351C7.52662 19.853 8.85349 20.3075 10.2231 20.335C7.8979 22.1615 5.02557 23.1522 2.06875 23.1475C1.54438 23.1467 1.02053 23.1145 0.5 23.0512C3.50381 24.9783 6.99804 26.0018 10.5669 26Z" fill="#FCFCFC"/>
</svg>
